<svg xmlns="http://www.w3.org/2000/svg" viewBox="0 0 334.83 49.47"><defs><style>.cls-1{fill:#a0072b;}</style></defs><title>Aromatic Wood Logo</title><g id="Layer_2" data-name="Layer 2"><g id="Layer_1-2" data-name="Layer 1"><path class="cls-1" d="M227.59,28a68.8,68.8,0,0,1-2.54,7.32,116.36,116.36,0,0,1-6,11.18c-1.87,3-4.84,2.79-6-.5-1.49-4.38-3.06-8.91-3.38-13.46-.51-7.12,0-14.3,0-21.46a2.28,2.28,0,0,1,2.67-2.54c1.72,0,2.25,1.15,2.2,2.69-.15,5.33-.54,10.66-.37,16,.16,4.78.93,9.55,1.44,14.32l1.18.28a55.43,55.43,0,0,0,3-6.16c2-5.89,3.94-11.84,5.79-17.79.53-1.69,1.35-2.53,3.19-2.4s2.12,1.52,2.36,3c1.08,6.64,1.66,13.41,4.91,19.5A27.78,27.78,0,0,0,238.35,41a22.37,22.37,0,0,0,2.58-2.86c2.7-4.25,3.6-9.12,4.13-14,.59-5.45.85-11,1.18-16.43.11-1.81.84-3,2.69-2.73.8.13,2.1,1.24,2.07,1.85-.5,10.35.27,21-4.81,30.54a32.36,32.36,0,0,1-5.38,7.09c-2.06,2.14-4.68,1.94-6.08-.63-2.38-4.34-4.24-9-6.31-13.48C228.17,29.79,228,29.18,227.59,28Z"/><path class="cls-1" d="M84.36,27.73a11.81,11.81,0,0,1,1.92-2.68c1.16-.92,2.57-2,3.89-2,.84,0,2,1.71,2.46,2.87a63.35,63.35,0,0,1,1.83,7c1-1.52,1.66-2.7,2.48-3.77,1.49-1.95,2.77-4.69,5.77-3.95s2.91,3.9,3.09,6.24c.33,4.14.12,8.32.15,12.48A1.88,1.88,0,0,1,103.79,46c-1.4,0-2.86-.1-3-1.87s-.06-3.82-.07-5.73a27.27,27.27,0,0,0-.53-6.41c-.7,1.39-1.44,2.77-2.1,4.18-1,2-1.92,4.06-2.79,6.13-.74,1.77-2.18,2.58-3.76,1.85-.86-.39-1.5-2-1.65-3.08-.34-2.55-.26-5.16-.47-7.73a25.13,25.13,0,0,0-.71-3.27L87.83,30q-1.58,5.55-3.13,11.09c-.43,1.53-.81,3.06-1.24,4.58-.48,1.68-1.76,2.13-3.31,2s-2-1.33-1.94-2.7q.3-11.11.65-22.23c0-1.6,1.08-2.11,2.52-2.11s2.61.57,2.58,2.3c0,1.53-.13,3.06-.19,4.6Z"/><path class="cls-1" d="M131.09,28.84c-2.2,2-3.7,2.1-5.29,1.06l-.43-.26c-6.48-4-12-1.29-12.41,6.41a13.81,13.81,0,0,0,1.23,6.46c1.26,2.7,3.58,3.13,5.69,1a79,79,0,0,0,6.36-7.94c1-1.26,1.62-2.82,2.78-3.82a4.33,4.33,0,0,1,3.29-.78c.56.11,1,1.59,1.22,2.51.38,1.69.3,3.51.85,5.12,1,2.8,2.62,3.16,5.3,1.79A20.31,20.31,0,0,1,144.26,39a1.32,1.32,0,0,1,1.1.73,1.49,1.49,0,0,1-.49,1.25c-4.56,3.9-10.23,4.89-14.25-.17-1.26-1.58-1.66-.95-2.72.2-2,2.17-4,4.67-6.57,5.94-7.17,3.57-13-1.82-13.65-8.84a12,12,0,0,1,15.57-12.65A75,75,0,0,1,131.09,28.84Z"/><path class="cls-1" d="M147.76,15.53c-3,.17-5.59.35-8.21.43-.39,0-.8-.45-1.29-1.46a54.76,54.76,0,0,1,7-1.71c2.32-.28,3.37-1.1,3.4-3.55a56.63,56.63,0,0,1,.84-6.94C149.75.24,151.18-.23,153,.09s1.7,1.67,1.46,3.11c-.38,2.22-.6,4.46-.95,6.68-.23,1.43.42,1.72,1.69,1.65,2.41-.13,4.83-.24,7.23-.17.64,0,1.26.73,1.89,1.13-.62.42-1.2,1.15-1.86,1.21-2.31.24-4.65.29-7,.33-1.78,0-2.44.86-2.5,2.64-.3,9.74-.69,19.47-1,29.21,0,1.45,0,2.9-1.88,3.29-2.18.45-3.39-.5-3.33-3.07.17-7.57.46-15.14.72-22.72C147.48,20.82,147.63,18.26,147.76,15.53Z"/><path class="cls-1" d="M43.08,26.52a15.32,15.32,0,0,1,3.12-2.14A11.1,11.1,0,0,1,50,24c.2,0,.63,1.63.53,1.68-7.18,3.71-7.07,11-8.51,17.43-.69,3.1-1.86,4.63-3.94,4.11-2.73-.69-1.56-2.9-1.48-4.56.33-6.91.79-13.8,1.1-20.71.1-2.09.79-3.39,3.07-3.3,1.46,0,2.33.73,2.3,2.33S43.08,24.4,43.08,26.52Z"/><path class="cls-1" d="M181.8,47.36a9.49,9.49,0,0,1-9-5.25c-1.84-3.47-1.38-6.88.8-10.12a18.07,18.07,0,0,1,11.73-7.81c2.78-.58,5.57-.28,7.51,2.15a4.22,4.22,0,0,1,.8,2.93c-.06.47-1.52,1.17-2.19,1a3.74,3.74,0,0,1-2.28-1.73c-.71-1.34-1.47-2.3-3.07-1.75-4.94,1.71-10.9,6.73-8.94,13.79.94,3.4,3.8,5.09,7,3.7a27.79,27.79,0,0,0,4.32-2.85c.68-.47,1.29-1.31,2-1.38a9.81,9.81,0,0,1,3,.6,8.12,8.12,0,0,1-1.19,2.22A15,15,0,0,1,181.8,47.36Z"/><path class="cls-1" d="M159.94,39.73c.83-5.57,1.57-11.16,2.55-16.7a3.59,3.59,0,0,1,2-2.35c2.09-.67,3,.42,2.74,2.62-.74,6.84-1.45,13.68-2,20.53-.15,1.81-.51,3.18-2.62,3.08s-2.79-1.4-2.55-3.4c.15-1.23.15-2.48.22-3.72Z"/><path class="cls-1" d="M168.21,11.91l1.84,1.71a7.32,7.32,0,0,1-2.35,1.12c-.52,0-1.11-.77-1.67-1.2Z"/><path class="cls-1" d="M144.26,39a20.31,20.31,0,0,0-4.58,1.42c-2.68,1.37-4.35,1-5.3-1.79-.55-1.61-.47-3.43-.85-5.12-.21-.92-.66-2.4-1.22-2.51a4.33,4.33,0,0,0-3.29.78c-1.16,1-1.81,2.56-2.78,3.82a79,79,0,0,1-6.36,7.94c-2.11,2.11-4.43,1.68-5.69-1A13.81,13.81,0,0,1,113,36.05c.44-7.7,5.93-10.44,12.41-6.41l.43.26c1.59,1,3.09,1,5.29-1.06a75,75,0,0,0-7.84-3.39A12,12,0,0,0,107.68,38.1c.66,7,6.48,12.41,13.65,8.84,2.55-1.27,4.56-3.77,6.57-5.94,1.06-1.15,1.46-1.78,2.72-.2,4,5.06,9.69,4.07,14.25.17a1.49,1.49,0,0,0,.49-1.25A1.32,1.32,0,0,0,144.26,39Z"/><path class="cls-1" d="M164.54,20.68a3.59,3.59,0,0,0-2,2.35c-1,5.54-1.72,11.13-2.55,16.7l.35.06c-.07,1.24-.07,2.49-.22,3.72-.24,2,.41,3.31,2.55,3.4s2.47-1.27,2.62-3.08c.59-6.85,1.3-13.69,2-20.53C167.52,21.1,166.63,20,164.54,20.68Z"/><path class="cls-1" d="M102.71,25.18c-3-.74-4.28,2-5.77,3.95-.82,1.07-1.49,2.25-2.48,3.77a63.35,63.35,0,0,0-1.83-7C92.18,24.72,91,23,90.17,23c-1.32,0-2.73,1.12-3.89,2a11.81,11.81,0,0,0-1.92,2.68l-.59-.19c.06-1.54.17-3.07.19-4.6,0-1.73-1-2.31-2.58-2.3s-2.47.51-2.52,2.11Q78.51,33.87,78.21,45c0,1.37.32,2.55,1.94,2.7s2.83-.31,3.31-2c.43-1.52.81-3,1.24-4.58Q86.26,35.56,87.83,30l.87.08a25.13,25.13,0,0,1,.71,3.27c.21,2.57.13,5.18.47,7.73.15,1.12.79,2.69,1.65,3.08,1.58.73,3-.08,3.76-1.85.87-2.07,1.83-4.1,2.79-6.13.66-1.41,1.4-2.79,2.1-4.18a27.27,27.27,0,0,1,.53,6.41c0,1.91-.1,3.83.07,5.73s1.61,1.87,3,1.87A1.88,1.88,0,0,0,106,43.9c0-4.16.18-8.34-.15-12.48C105.62,29.08,105.74,25.94,102.71,25.18Z"/><path class="cls-1" d="M164.27,12.49c-.63-.4-1.25-1.11-1.89-1.13-2.4-.07-4.82,0-7.23.17-1.27.07-1.92-.22-1.69-1.65.35-2.22.57-4.46.95-6.68.24-1.44.36-2.77-1.46-3.11s-3.2.15-3.49,2.21a56.63,56.63,0,0,0-.84,6.94c0,2.45-1.08,3.27-3.4,3.55a54.76,54.76,0,0,0-7,1.71c.49,1,.9,1.48,1.29,1.46,2.62-.08,5.24-.26,8.21-.43-.13,2.73-.28,5.29-.36,7.85-.26,7.58-.55,15.15-.72,22.72-.06,2.57,1.15,3.52,3.33,3.07,1.91-.39,1.83-1.84,1.88-3.29.35-9.74.74-19.47,1-29.21.06-1.78.72-2.61,2.5-2.64,2.33,0,4.67-.09,7-.33C163.07,13.64,163.65,12.91,164.27,12.49Z"/><path class="cls-1" d="M74.44,28.22c-.45-1-1.57-2.62-2.32-2.59-2.92.11-5.39-1.17-8.05-1.85a7.06,7.06,0,0,0-3.42.41c-5.28,1.59-8.48,5.46-10.51,10.3-1.82,4.34-.36,9.08,3.32,10.92a53.07,53.07,0,0,0,7,2.41C71.19,47.47,78.43,37.51,74.44,28.22ZM62.81,44.34c-5,1.33-9-2.15-7.65-7.13a31.45,31.45,0,0,1,4-8.43,3.62,3.62,0,0,1,5.22-1.34,3.47,3.47,0,0,0,1.44.35c3.86.37,4.7,1.33,4.68,5.44C70.47,38.42,67.18,43.18,62.81,44.34Z"/><path class="cls-1" d="M28.79,5.84C27,2.32,24.06,1.6,21.58,4.66c-3,3.72-6.53,7.53-8,11.91C11.8,22,9,24,3.68,24,2.34,24-.33,23.8,0,25.8s2.77.87,4.31.73c1.75-.15,3.5-.46,5.1-.68C8.3,33,7.21,39.68,6.14,46.39c-.23,1.41-.25,2.76,1.63,3,1.7.25,3-.3,3.38-2.12.23-1,.3-2.14.48-3.21l2.82-16.72A2.56,2.56,0,0,1,17.36,25a51.39,51.39,0,0,0,7.22-.55c2.14-.31,2.86.38,2.7,2.54-.36,4.57-.53,9.14-.79,13.72-.11,1.74.43,3,2.37,3.08s2.79-1,2.81-3c0-4.25.35-8.49.44-12.73C32.26,20.47,32.36,12.89,28.79,5.84ZM22.6,21.89c-2,.15-3.91.35-6.56.6C18.2,17,19.94,12,24.61,7.75c.8,3.4,1.64,6.22,2.09,9.09C27.41,21.5,27.3,21.51,22.6,21.89Z"/><path class="cls-1" d="M50,24a11.1,11.1,0,0,0-3.82.43,15.32,15.32,0,0,0-3.12,2.14c0-2.12,0-3.86,0-5.59s-.84-2.28-2.3-2.33c-2.28-.09-3,1.21-3.07,3.3-.31,6.91-.77,13.8-1.1,20.71-.08,1.66-1.25,3.87,1.48,4.56,2.08.52,3.25-1,3.94-4.11,1.44-6.46,1.33-13.72,8.51-17.43C50.65,25.58,50.22,24,50,24Z"/><path class="cls-1" d="M334.8,5.12c.13-1.73-.12-3-2.19-3.11s-3,.77-3,2.76c0,1.17-.07,2.34-.18,3.49-.55,5.52-1.12,11-1.75,17.12-1.31-.84-2.07-1.27-2.75-1.79A9.06,9.06,0,0,0,316.38,22a16.48,16.48,0,0,0-11.75,15.66A9,9,0,0,0,309.21,46c5.61,3.2,11.07,2.35,15.47-2.54,1.14-1.26,2.15-2.64,3.74-4.6.16,1.77.26,2.75.34,3.72.15,1.68,1,2.65,2.75,2.49s2.17-1.34,2.07-3c-.25-4.41-.65-8.83-.46-13.22C333.47,20.9,334.18,13,334.8,5.12Zm-8.59,25c-1.71,4.12-3.06,8.5-5.44,12.21-2.93,4.57-7.58,3.82-9.74-1.17a32.56,32.56,0,0,1-1.28-4.35c.75-4.39,1.65-8.16,5.1-10.72a5.71,5.71,0,0,1,7.75.2c.94.79,2,1.42,2.93,2.25C325.93,28.87,326.37,29.71,326.21,30.09Z"/><path class="cls-1" d="M248.93,5c-1.85-.28-2.58.92-2.69,2.73-.33,5.48-.59,11-1.18,16.43-.53,4.88-1.43,9.75-4.13,14A22.37,22.37,0,0,1,238.35,41a27.78,27.78,0,0,1-2.23-3.12c-3.25-6.09-3.83-12.86-4.91-19.5-.24-1.44-.41-2.81-2.36-3s-2.66.71-3.19,2.4c-1.85,5.95-3.74,11.9-5.79,17.79a55.43,55.43,0,0,1-3,6.16l-1.18-.28c-.51-4.77-1.28-9.54-1.44-14.32-.17-5.32.22-10.65.37-16,.05-1.54-.48-2.65-2.2-2.69A2.28,2.28,0,0,0,209.76,11c0,7.16-.55,14.34,0,21.46.32,4.55,1.89,9.08,3.38,13.46,1.12,3.29,4.09,3.51,6,.5a116.36,116.36,0,0,0,6-11.18A68.8,68.8,0,0,0,227.59,28c.42,1.22.58,1.83.83,2.39,2.07,4.52,3.93,9.14,6.31,13.48,1.4,2.57,4,2.77,6.08.63a32.36,32.36,0,0,0,5.38-7.09c5.08-9.58,4.31-20.19,4.81-30.54C251,6.22,249.73,5.11,248.93,5Z"/><path class="cls-1" d="M166,13.54c.56.43,1.15,1.24,1.67,1.2a7.32,7.32,0,0,0,2.35-1.12l-1.84-1.71Z"/><path class="cls-1" d="M185.35,24.18A18.07,18.07,0,0,0,173.62,32c-2.18,3.24-2.64,6.65-.8,10.12a9.49,9.49,0,0,0,9,5.25,15,15,0,0,0,10.51-4.47,8.12,8.12,0,0,0,1.19-2.22,9.81,9.81,0,0,0-3-.6c-.7.07-1.31.91-2,1.38a27.79,27.79,0,0,1-4.32,2.85c-3.23,1.39-6.09-.3-7-3.7-2-7.06,4-12.08,8.94-13.79,1.6-.55,2.36.41,3.07,1.75a3.74,3.74,0,0,0,2.28,1.73c.67.14,2.13-.56,2.19-1a4.22,4.22,0,0,0-.8-2.93C190.92,23.9,188.13,23.6,185.35,24.18Z"/><path class="cls-1" d="M271.65,25.69A23.55,23.55,0,0,1,265,24.14a6.86,6.86,0,0,0-3.65,0c-5.1,1.33-8.49,4.78-10.62,9.41-2,4.39-.79,9.88,2.61,11.57a58.23,58.23,0,0,0,7.43,2.59c10.24-.43,17.12-9.21,14.12-18.57C274.44,27.74,272.8,25.73,271.65,25.69Zm-9.52,19c-3.48.7-7.11-1.57-7.18-5.07-.1-4.71,1.45-9,5.45-11.9.93-.67,2.57-.4,3.88-.44.55,0,1.09.4,1.65.46,3.83.4,4.83,1.54,4.84,5.61C270.77,38.85,267.1,43.67,262.13,44.67Z"/><path class="cls-1" d="M303.49,30.44c-.39-1.77-2-4.4-3.38-4.59A39.36,39.36,0,0,1,292.78,24a6.14,6.14,0,0,0-3.18.06c-5.41,1.27-10.7,7.06-11.57,12.53-.61,3.8,1.21,7.85,4.46,9.2a54.51,54.51,0,0,0,6.66,1.84C299.48,47.4,305.24,38.2,303.49,30.44ZM291.23,44.49c-4.55,1.38-9.07-2.11-8-6.69a31.88,31.88,0,0,1,4.32-9.33,3.8,3.8,0,0,1,5.31-1.18,4.09,4.09,0,0,0,1.42.42c4,.47,4.81,1.39,4.82,5.52C299.1,38.31,295.74,43.12,291.23,44.49Z"/></g></g></svg>