<svg xmlns="http://www.w3.org/2000/svg" viewBox="0 0 400 400"><defs><style>.cls-1{fill:#245b9f;}.cls-2{fill:#fff;}</style></defs><title>facebook icon</title><g id="Layer_2" data-name="Layer 2"><g id="Layer_1-2" data-name="Layer 1"><path class="cls-1" d="M400,200c0,110.45-89.55,200-200,200S0,310.45,0,200,89.55,0,200,0,400,89.53,400,200Z"/><path class="cls-2" d="M166.67,325h50V200h37.1l4.56-50H218.6V130c0-9.74,6.49-12,11.05-12h28V75.16L219.07,75c-42.87,0-52.61,32-52.61,52.4V150H141.67v50h25Z"/><path class="cls-1" d="M400,200c0,110.45-89.55,200-200,200S0,310.45,0,200,89.55,0,200,0,400,89.53,400,200Z"/><path class="cls-2" d="M166.67,325h50V200h37.1l4.56-50H218.6V130c0-9.74,6.49-12,11.05-12h28V75.16L219.07,75c-42.87,0-52.61,32-52.61,52.4V150H141.67v50h25Z"/><path class="cls-1" d="M400,200c0,110.45-89.55,200-200,200S0,310.45,0,200,89.55,0,200,0,400,89.53,400,200Z"/><path class="cls-2" d="M166.67,325h50V200h37.1l4.56-50H218.6V130c0-9.74,6.49-12,11.05-12h28V75.16L219.07,75c-42.87,0-52.61,32-52.61,52.4V150H141.67v50h25Z"/></g></g></svg>