<svg xmlns="http://www.w3.org/2000/svg" xmlns:xlink="http://www.w3.org/1999/xlink" viewBox="0 0 400 400"><defs><style>.cls-1{fill:url(#Degradado_sin_nombre_3);}.cls-2{fill:url(#Degradado_sin_nombre_3-2);}.cls-3{fill:url(#Degradado_sin_nombre_3-3);}.cls-4{fill:#fff;}</style><radialGradient id="Degradado_sin_nombre_3" cx="119.54" cy="312.31" r="275.3" gradientTransform="translate(-405.81 -405.81) scale(3.03)" gradientUnits="userSpaceOnUse"><stop offset="0" stop-color="#f8ed43"/><stop offset="0.24" stop-color="#f58341"/><stop offset="0.4" stop-color="#eb5569"/><stop offset="0.49" stop-color="#e7407b"/><stop offset="1" stop-color="#3b56a6"/></radialGradient><radialGradient id="Degradado_sin_nombre_3-2" cx="119.54" cy="312.31" r="275.3" xlink:href="#Degradado_sin_nombre_3"/><radialGradient id="Degradado_sin_nombre_3-3" cx="116.41" cy="315.25" r="284.72" xlink:href="#Degradado_sin_nombre_3"/></defs><title>Instagram Icon</title><g id="Layer_2" data-name="Layer 2"><g id="Layer_1-2" data-name="Layer 1"><path class="cls-1" d="M200,0C89.54,0,0,89.54,0,200S89.54,400,200,400s200-89.54,200-200S310.46,0,200,0ZM315.5,242.49a71.52,71.52,0,0,1-71.43,71.44H153.61a71.52,71.52,0,0,1-71.43-71.44V152A71.52,71.52,0,0,1,153.61,80.6h90.46A71.52,71.52,0,0,1,315.5,152Z"/><path class="cls-2" d="M200,400C89.54,400,0,310.46,0,200S89.54,0,200,0,400,89.54,400,200,310.46,400,200,400Z"/><path class="cls-3" d="M244.07,98.08H153.61a54,54,0,0,0-54,54v90.45a54,54,0,0,0,54,54h90.46a54,54,0,0,0,54-54V152A54,54,0,0,0,244.07,98.08ZM198.84,256.29a59,59,0,1,1,59-59A59.09,59.09,0,0,1,198.84,256.29Zm65.44-109.1a15.37,15.37,0,1,1,15.37-15.37A15.37,15.37,0,0,1,264.28,147.19Z"/><path class="cls-1" d="M244.07,98.08H153.61a54,54,0,0,0-54,54v90.45a54,54,0,0,0,54,54h90.46a54,54,0,0,0,54-54V152A54,54,0,0,0,244.07,98.08ZM198.84,256.29a59,59,0,1,1,59-59A59.09,59.09,0,0,1,198.84,256.29Zm65.44-109.1a15.37,15.37,0,1,1,15.37-15.37A15.37,15.37,0,0,1,264.28,147.19Z"/><path class="cls-3" d="M198.84,156.14A41.13,41.13,0,1,0,240,197.27,41.18,41.18,0,0,0,198.84,156.14Z"/><path class="cls-1" d="M198.84,156.14A41.13,41.13,0,1,0,240,197.27,41.18,41.18,0,0,0,198.84,156.14Z"/><path class="cls-4" d="M244.07,80.6H153.61A71.52,71.52,0,0,0,82.18,152v90.45a71.52,71.52,0,0,0,71.43,71.44h90.46a71.52,71.52,0,0,0,71.43-71.44V152A71.52,71.52,0,0,0,244.07,80.6Zm54,161.89a54,54,0,0,1-54,54H153.61a54,54,0,0,1-54-54V152a54,54,0,0,1,54-54h90.46a54,54,0,0,1,54,54Z"/><path class="cls-4" d="M244.07,80.6H153.61A71.52,71.52,0,0,0,82.18,152v90.45a71.52,71.52,0,0,0,71.43,71.44h90.46a71.52,71.52,0,0,0,71.43-71.44V152A71.52,71.52,0,0,0,244.07,80.6Zm54,161.89a54,54,0,0,1-54,54H153.61a54,54,0,0,1-54-54V152a54,54,0,0,1,54-54h90.46a54,54,0,0,1,54,54Z"/><path class="cls-4" d="M198.84,138.25a59,59,0,1,0,59,59A59.08,59.08,0,0,0,198.84,138.25Zm0,100.15A41.13,41.13,0,1,1,240,197.27,41.18,41.18,0,0,1,198.84,238.4Z"/><path class="cls-4" d="M198.84,138.25a59,59,0,1,0,59,59A59.08,59.08,0,0,0,198.84,138.25Zm0,100.15A41.13,41.13,0,1,1,240,197.27,41.18,41.18,0,0,1,198.84,238.4Z"/><circle class="cls-4" cx="264.28" cy="131.82" r="15.37" transform="translate(-15.81 225.49) rotate(-45)"/><circle class="cls-4" cx="264.28" cy="131.82" r="15.37" transform="translate(-15.81 225.49) rotate(-45)"/></g></g></svg>