<svg xmlns="http://www.w3.org/2000/svg" viewBox="0 0 400 400"><defs><style>.cls-1{fill:#00ace3;}.cls-2{fill:#fff;}</style></defs><title>Twitter Icon</title><g id="Layer_2" data-name="Layer 2"><g id="Layer_1-2" data-name="Layer 1"><path class="cls-1" d="M400,200c0,110.45-89.55,200-200,200S0,310.45,0,200,89.55,0,200,0,400,89.54,400,200Z"/><path class="cls-2" d="M318.1,103.69A103.73,103.73,0,0,1,285.52,116a51.56,51.56,0,0,0-37.43-16c-28.32,0-51.28,22.61-51.28,50.49A50.83,50.83,0,0,0,198.12,162,146.4,146.4,0,0,1,92.41,109.24a49.69,49.69,0,0,0-7,25.39,50.28,50.28,0,0,0,22.83,42,51.9,51.9,0,0,1-23.24-6.31V171c0,24.46,17.69,44.87,41.15,49.51a51.88,51.88,0,0,1-13.52,1.77,53,53,0,0,1-9.65-.9,51.27,51.27,0,0,0,47.91,35.06A104,104,0,0,1,87.23,278,105,105,0,0,1,75,277.32,146.9,146.9,0,0,0,153.63,300c94.34,0,145.92-76.93,145.92-143.65,0-2.19,0-4.38-.13-6.54A102.84,102.84,0,0,0,325,123.67a103.48,103.48,0,0,1-29.45,8A50.79,50.79,0,0,0,318.1,103.69Z"/><path class="cls-1" d="M400,200c0,110.45-89.55,200-200,200S0,310.45,0,200,89.55,0,200,0,400,89.54,400,200Z"/><path class="cls-2" d="M318.1,103.69A103.73,103.73,0,0,1,285.52,116a51.56,51.56,0,0,0-37.43-16c-28.32,0-51.28,22.61-51.28,50.49A50.83,50.83,0,0,0,198.12,162,146.4,146.4,0,0,1,92.41,109.24a49.69,49.69,0,0,0-7,25.39,50.28,50.28,0,0,0,22.83,42,51.9,51.9,0,0,1-23.24-6.31V171c0,24.46,17.69,44.87,41.15,49.51a51.88,51.88,0,0,1-13.52,1.77,53,53,0,0,1-9.65-.9,51.27,51.27,0,0,0,47.91,35.06A104,104,0,0,1,87.23,278,105,105,0,0,1,75,277.32,146.9,146.9,0,0,0,153.63,300c94.34,0,145.92-76.93,145.92-143.65,0-2.19,0-4.38-.13-6.54A102.84,102.84,0,0,0,325,123.67a103.48,103.48,0,0,1-29.45,8A50.79,50.79,0,0,0,318.1,103.69Z"/><path class="cls-1" d="M400,200c0,110.45-89.55,200-200,200S0,310.45,0,200,89.55,0,200,0,400,89.54,400,200Z"/><path class="cls-2" d="M318.1,103.69A103.73,103.73,0,0,1,285.52,116a51.56,51.56,0,0,0-37.43-16c-28.32,0-51.28,22.61-51.28,50.49A50.83,50.83,0,0,0,198.12,162,146.4,146.4,0,0,1,92.41,109.24a49.69,49.69,0,0,0-7,25.39,50.28,50.28,0,0,0,22.83,42,51.9,51.9,0,0,1-23.24-6.31V171c0,24.46,17.69,44.87,41.15,49.51a51.88,51.88,0,0,1-13.52,1.77,53,53,0,0,1-9.65-.9,51.27,51.27,0,0,0,47.91,35.06A104,104,0,0,1,87.23,278,105,105,0,0,1,75,277.32,146.9,146.9,0,0,0,153.63,300c94.34,0,145.92-76.93,145.92-143.65,0-2.19,0-4.38-.13-6.54A102.84,102.84,0,0,0,325,123.67a103.48,103.48,0,0,1-29.45,8A50.79,50.79,0,0,0,318.1,103.69Z"/></g></g></svg>